<?xml version="1.0" encoding="UTF-8" standalone="no"?>
<!-- Created with Inkscape (http://www.inkscape.org/) -->

<svg
   xmlns:dc="http://purl.org/dc/elements/1.1/"
   xmlns:cc="http://creativecommons.org/ns#"
   xmlns:rdf="http://www.w3.org/1999/02/22-rdf-syntax-ns#"
   xmlns:svg="http://www.w3.org/2000/svg"
   xmlns="http://www.w3.org/2000/svg"
   xmlns:sodipodi="http://sodipodi.sourceforge.net/DTD/sodipodi-0.dtd"
   xmlns:inkscape="http://www.inkscape.org/namespaces/inkscape"
   width="96pt"
   height="96pt"
   viewBox="0 0 33.866666 33.866666"
   version="1.1"
   id="svg8"
   inkscape:version="0.92.3 (2405546, 2018-03-11)"
   sodipodi:docname="logo-000.svg">
  <defs
     id="defs2" />
  <sodipodi:namedview
     id="base"
     pagecolor="#ffffff"
     bordercolor="#666666"
     borderopacity="1.0"
     inkscape:pageopacity="0.0"
     inkscape:pageshadow="2"
     inkscape:zoom="3.1788321"
     inkscape:cx="27.398492"
     inkscape:cy="55.227454"
     inkscape:document-units="pt"
     inkscape:current-layer="g3721"
     showgrid="false"
     showguides="true"
     units="pt"
     inkscape:window-width="1920"
     inkscape:window-height="1052"
     inkscape:window-x="1280"
     inkscape:window-y="0"
     inkscape:window-maximized="1"
     inkscape:pagecheckerboard="true"
     inkscape:guide-bbox="true" />
  <metadata
     id="metadata5">
    <rdf:RDF>
      <cc:Work
         rdf:about="">
        <dc:format>image/svg+xml</dc:format>
        <dc:type
           rdf:resource="http://purl.org/dc/dcmitype/StillImage" />
        <dc:title></dc:title>
      </cc:Work>
    </rdf:RDF>
  </metadata>
  <g
     inkscape:label="Layer 1"
     inkscape:groupmode="layer"
     id="layer1"
     transform="translate(0,-263.13333)">
    <g
       transform="matrix(0.35277777,0,0,-0.35277777,-33.280797,101.18754)"
       inkscape:label="ink_ext_XXXXXX"
       id="g3721">
      <g
         id="g3990"
         transform="translate(47.999999,47.999987)"
         style="fill:#000000">
        <path
           inkscape:connector-curvature="0"
           id="path3741"
           style="fill:#000000;fill-opacity:1;fill-rule:nonzero;stroke:none;stroke-width:0.10213452"
           d="m 74.339271,-543.05893 c 0,-4.41806 -3.58138,-8 -7.99949,-8 -4.41913,0 -8.00051,3.58194 -8.00051,8 0,4.4191 3.58138,8 8.00051,8 4.41811,0 7.99949,-3.5809 7.99949,-8" />
        <path
           inkscape:connector-curvature="0"
           id="path3743"
           style="fill:#000000;fill-opacity:1;fill-rule:nonzero;stroke:none;stroke-width:0.10213452"
           d="m 90.33927,-527.05893 c 0,-4.41806 -3.58138,-8 -7.99949,-8 -4.41913,0 -8.00051,3.58194 -8.00051,8 0,4.4191 3.58138,8 8.00051,8 4.41811,0 7.99949,-3.5809 7.99949,-8" />
        <path
           inkscape:connector-curvature="0"
           id="path3745"
           style="fill:#000000;fill-opacity:1;fill-rule:nonzero;stroke:none;stroke-width:0.10213452"
           d="m 114.33927,-527.05893 c 0,-4.41806 -3.58138,-8 -7.99949,-8 -4.41913,0 -8.000511,3.58194 -8.000511,8 0,4.4191 3.581381,8 8.000511,8 4.41811,0 7.99949,-3.5809 7.99949,-8" />
        <path
           inkscape:connector-curvature="0"
           id="path3747"
           style="fill:#000000;fill-opacity:1;fill-rule:nonzero;stroke:none;stroke-width:0.10213452"
           d="m 130.33927,-543.05893 c 0,-4.41806 -3.58138,-8 -7.99949,-8 -4.41913,0 -8.00051,3.58194 -8.00051,8 0,4.4191 3.58138,8 8.00051,8 4.41811,0 7.99949,-3.5809 7.99949,-8" />
        <path
           inkscape:connector-curvature="0"
           id="path3749"
           style="fill:#000000;fill-opacity:1;fill-rule:nonzero;stroke:none;stroke-width:0.10213452"
           d="m 130.33927,-567.05893 c 0,-4.41806 -3.58138,-8 -7.99949,-8 -4.41913,0 -8.00051,3.58194 -8.00051,8 0,4.4191 3.58138,8 8.00051,8 4.41811,0 7.99949,-3.5809 7.99949,-8" />
        <path
           inkscape:connector-curvature="0"
           id="path3753"
           style="fill:#000000;fill-opacity:1;fill-rule:nonzero;stroke:none;stroke-width:0.10213452"
           d="m 90.33927,-583.05893 c 0,-4.41806 -3.58138,-8 -7.99949,-8 -4.41913,0 -8.00051,3.58194 -8.00051,8 0,4.4191 3.58138,8 8.00051,8 4.41811,0 7.99949,-3.5809 7.99949,-8" />
        <path
           inkscape:connector-curvature="0"
           id="path3755"
           style="fill:#000000;fill-opacity:1;fill-rule:nonzero;stroke:none;stroke-width:0.10213452"
           d="m 74.339271,-567.05893 c 0,-4.41806 -3.58138,-8 -7.99949,-8 -4.41913,0 -8.00051,3.58194 -8.00051,8 0,4.4191 3.58138,8 8.00051,8 4.41811,0 7.99949,-3.5809 7.99949,-8" />
        <path
           inkscape:connector-curvature="0"
           id="path3757"
           style="fill:#000000;fill-opacity:1;fill-rule:nonzero;stroke:none;stroke-width:0.10002911"
           d="m 110.33927,-555.05893 c 0,-8.8371 -7.16345,-16 -16.00049,-16 -8.83605,0 -15.99951,7.1629 -15.99951,16 0,8.8371 7.16346,16 15.99951,16 8.83704,0 16.00049,-7.1629 16.00049,-16" />
        <path
           inkscape:connector-curvature="0"
           id="path3759"
           style="fill:#000000;fill-opacity:1;fill-rule:nonzero;stroke:none;stroke-width:0.064864"
           d="m 130.33927,-523.05926 c 0,-2.2087 -1.79082,-3.99967 -4,-3.99967 -2.20918,0 -4,1.79097 -4,3.99967 0,2.20936 1.79082,4.00033 4,4.00033 2.20918,0 4,-1.79097 4,-4.00033" />
        <path
           inkscape:connector-curvature="0"
           id="path3761"
           style="fill:#000000;fill-opacity:1;fill-rule:nonzero;stroke:none;stroke-width:0.064864"
           d="m 142.33927,-555.05926 c 0,-2.2087 -1.79082,-3.99967 -4,-3.99967 -2.20918,0 -4,1.79097 -4,3.99967 0,2.20936 1.79082,4.00033 4,4.00033 2.20918,0 4,-1.79097 4,-4.00033" />
        <path
           inkscape:connector-curvature="0"
           id="path3763"
           style="fill:#000000;fill-opacity:1;fill-rule:nonzero;stroke:none;stroke-width:0.064864"
           d="m 130.33927,-587.05926 c 0,-2.2087 -1.79082,-3.99967 -4,-3.99967 -2.20918,0 -4,1.79097 -4,3.99967 0,2.20936 1.79082,4.00033 4,4.00033 2.20918,0 4,-1.79097 4,-4.00033" />
        <path
           inkscape:connector-curvature="0"
           id="path3765"
           style="fill:#000000;fill-opacity:1;fill-rule:nonzero;stroke:none;stroke-width:0.064864"
           d="m 98.339271,-599.05926 c 0,-2.2087 -1.790822,-3.99967 -4.000002,-3.99967 -2.20918,0 -4,1.79097 -4,3.99967 0,2.20936 1.79082,4.00033 4,4.00033 2.20918,0 4.000002,-1.79097 4.000002,-4.00033" />
        <path
           inkscape:connector-curvature="0"
           id="path3767"
           style="fill:#000000;fill-opacity:1;fill-rule:nonzero;stroke:none;stroke-width:0.064864"
           d="m 66.339271,-587.05926 c 0,-2.2087 -1.79082,-3.99967 -4,-3.99967 -2.20918,0 -4,1.79097 -4,3.99967 0,2.20936 1.79082,4.00033 4,4.00033 2.20918,0 4,-1.79097 4,-4.00033" />
        <path
           inkscape:connector-curvature="0"
           id="path3769"
           style="fill:#000000;fill-opacity:1;fill-rule:nonzero;stroke:none;stroke-width:0.064864"
           d="m 54.339271,-555.05926 c 0,-2.2087 -1.79082,-3.99967 -4,-3.99967 -2.20918,0 -4,1.79097 -4,3.99967 0,2.20936 1.79082,4.00033 4,4.00033 2.20918,0 4,-1.79097 4,-4.00033" />
        <path
           inkscape:connector-curvature="0"
           id="path3771"
           style="fill:#000000;fill-opacity:1;fill-rule:nonzero;stroke:none;stroke-width:0.064864"
           d="m 66.339271,-523.05926 c 0,-2.2087 -1.79082,-3.99967 -4,-3.99967 -2.20918,0 -4,1.79097 -4,3.99967 0,2.20936 1.79082,4.00033 4,4.00033 2.20918,0 4,-1.79097 4,-4.00033" />
        <path
           inkscape:connector-curvature="0"
           id="path3773"
           style="fill:#000000;fill-opacity:1;fill-rule:nonzero;stroke:none;stroke-width:0.064864"
           d="m 98.33927,-511.05926 c 0,-2.2087 -1.79082,-3.99967 -4.000001,-3.99967 -2.20918,0 -4,1.79097 -4,3.99967 0,2.20936 1.79082,4.00033 4,4.00033 2.209181,0 4.000001,-1.79097 4.000001,-4.00033" />
        <path
           inkscape:connector-curvature="0"
           id="path3775"
           style="fill:#000000;fill-opacity:1;fill-rule:nonzero;stroke:none;stroke-width:0.04444445"
           d="m 76.33927,-509.05894 c 0,-1.10444 -0.89556,-2 -2,-2 -1.10444,0 -2,0.89556 -2,2 0,1.10445 0.89556,2 2,2 1.10444,0 2,-0.89555 2,-2" />
        <path
           inkscape:connector-curvature="0"
           id="path3777"
           style="fill:#000000;fill-opacity:1;fill-rule:nonzero;stroke:none;stroke-width:0.04444445"
           d="m 116.33927,-509.05894 c 0,-1.10444 -0.89556,-2 -2,-2 -1.10444,0 -2,0.89556 -2,2 0,1.10445 0.89556,2 2,2 1.10444,0 2,-0.89555 2,-2" />
        <path
           inkscape:connector-curvature="0"
           id="path3779"
           style="fill:#000000;fill-opacity:1;fill-rule:nonzero;stroke:none;stroke-width:0.04444445"
           d="m 142.33927,-535.05893 c 0,-1.10444 -0.89556,-2 -2,-2 -1.10444,0 -2,0.89556 -2,2 0,1.10445 0.89556,2 2,2 1.10444,0 2,-0.89555 2,-2" />
        <path
           inkscape:connector-curvature="0"
           id="path3781"
           style="fill:#000000;fill-opacity:1;fill-rule:nonzero;stroke:none;stroke-width:0.04444445"
           d="m 142.33927,-577.05893 c 0,-1.10444 -0.89556,-2 -2,-2 -1.10444,0 -2,0.89556 -2,2 0,1.10445 0.89556,2 2,2 1.10444,0 2,-0.89555 2,-2" />
        <path
           inkscape:connector-curvature="0"
           id="path3783"
           style="fill:#000000;fill-opacity:1;fill-rule:nonzero;stroke:none;stroke-width:0.04444445"
           d="m 116.33927,-601.05893 c 0,-1.10444 -0.89556,-2 -2,-2 -1.10444,0 -2,0.89556 -2,2 0,1.10445 0.89556,2 2,2 1.10444,0 2,-0.89555 2,-2" />
        <path
           inkscape:connector-curvature="0"
           id="path3785"
           style="fill:#000000;fill-opacity:1;fill-rule:nonzero;stroke:none;stroke-width:0.04444445"
           d="m 76.33927,-601.05893 c 0,-1.10444 -0.89556,-2 -2,-2 -1.10444,0 -2,0.89556 -2,2 0,1.10445 0.89556,2 2,2 1.10444,0 2,-0.89555 2,-2" />
        <path
           inkscape:connector-curvature="0"
           id="path3787"
           style="fill:#000000;fill-opacity:1;fill-rule:nonzero;stroke:none;stroke-width:0.04444444"
           d="m 50.339271,-577.05893 c 0,-1.10444 -0.89555,-2 -2,-2 -1.10444,0 -2,0.89556 -2,2 0,1.10445 0.89556,2 2,2 1.10445,0 2,-0.89555 2,-2" />
        <path
           inkscape:connector-curvature="0"
           id="path3789"
           style="fill:#000000;fill-opacity:1;fill-rule:nonzero;stroke:none;stroke-width:0.04444445"
           d="m 50.339271,-535.05893 c 0,-1.10444 -0.89555,-2 -2,-2 -1.10444,0 -2,0.89556 -2,2 0,1.10445 0.89556,2 2,2 1.10445,0 2,-0.89555 2,-2" />
        <path
           inkscape:connector-curvature="0"
           id="path3751"
           style="fill:#000000;fill-opacity:1;fill-rule:nonzero;stroke:none;stroke-width:0.10213452"
           d="m 114.33927,-583.05893 c 0,-4.41806 -3.58138,-8 -7.99949,-8 -4.41913,0 -8.000511,3.58194 -8.000511,8 0,4.4191 3.581381,8 8.000511,8 4.41811,0 7.99949,-3.5809 7.99949,-8" />
      </g>
    </g>
  </g>
</svg>
