<?xml version="1.0" encoding="UTF-8" standalone="no"?>
<!-- Created with Inkscape (http://www.inkscape.org/) -->

<svg
   xmlns:dc="http://purl.org/dc/elements/1.1/"
   xmlns:cc="http://creativecommons.org/ns#"
   xmlns:rdf="http://www.w3.org/1999/02/22-rdf-syntax-ns#"
   xmlns:svg="http://www.w3.org/2000/svg"
   xmlns="http://www.w3.org/2000/svg"
   xmlns:sodipodi="http://sodipodi.sourceforge.net/DTD/sodipodi-0.dtd"
   xmlns:inkscape="http://www.inkscape.org/namespaces/inkscape"
   width="163mm"
   height="56mm"
   viewBox="0 0 163 56"
   version="1.1"
   id="svg8"
   inkscape:version="0.92.3 (2405546, 2018-03-11)"
   sodipodi:docname="logo-horizontal.svg">
  <defs
     id="defs2" />
  <sodipodi:namedview
     id="base"
     pagecolor="#ffffff"
     bordercolor="#666666"
     borderopacity="1.0"
     inkscape:pageopacity="0.0"
     inkscape:pageshadow="2"
     inkscape:zoom="1.4648919"
     inkscape:cx="380.58445"
     inkscape:cy="-30.754299"
     inkscape:document-units="mm"
     inkscape:current-layer="g3721"
     showgrid="false"
     showguides="false"
     units="mm"
     inkscape:window-width="1920"
     inkscape:window-height="1052"
     inkscape:window-x="1280"
     inkscape:window-y="0"
     inkscape:window-maximized="1" />
  <metadata
     id="metadata5">
    <rdf:RDF>
      <cc:Work
         rdf:about="">
        <dc:format>image/svg+xml</dc:format>
        <dc:type
           rdf:resource="http://purl.org/dc/dcmitype/StillImage" />
        <dc:title></dc:title>
      </cc:Work>
    </rdf:RDF>
  </metadata>
  <g
     inkscape:label="Layer 1"
     inkscape:groupmode="layer"
     id="layer1"
     transform="translate(0,-240.99999)">
    <g
       transform="matrix(0.35277777,0,0,-0.35277777,-33.280797,101.18754)"
       inkscape:label="ink_ext_XXXXXX"
       id="g3721">
      <g
         transform="matrix(0.1,0,0,0.1,-1.4624513,-681.88215)"
         id="g3723">
        <path
           inkscape:connector-curvature="0"
           id="path3725"
           style="fill:#131212;fill-opacity:1;fill-rule:nonzero;stroke:none"
           d="m 1363.52,1861.37 v -554.31 h -66.69 v 554.31 z m -66.69,280.99 h 66.69 v -66.69 h -66.69 v 66.69" />
        <path
           inkscape:connector-curvature="0"
           id="path3727"
           style="fill:#131212;fill-opacity:1;fill-rule:nonzero;stroke:none"
           d="m 1522.03,1861.37 185.87,-478.87 171.65,478.87 h 56.86 l -200.09,-554.31 h -72.15 l -213.2,554.31 h 71.06" />
        <path
           inkscape:connector-curvature="0"
           id="path3729"
           style="fill:#131212;fill-opacity:1;fill-rule:nonzero;stroke:none"
           d="m 2350.77,1579.3 h -69.97 c -79.46,0 -139.59,-13.79 -180.4,-41.36 -33.53,-22.5 -50.29,-51.52 -50.29,-87.07 0,-31.19 12.74,-57.31 38.26,-78.36 25.51,-21.05 60.14,-31.55 103.87,-31.55 58.3,0 111.14,13.41 158.53,40.26 z m 66.7,-225.23 c -66.34,-44.46 -142.87,-66.69 -229.6,-66.69 -60.51,0 -110.8,14.95 -150.88,44.83 -38.65,30.61 -57.95,69.97 -57.95,118.07 0,53.21 22.96,95.84 68.88,127.92 51.74,36.45 127.18,54.67 226.32,54.67 h 76.53 v 77.2 c 0,31.16 -11.67,58.34 -34.98,81.54 -23.34,23.92 -52.48,35.87 -87.47,35.87 -67.07,0 -128.66,-10.93 -184.78,-32.79 v 59.03 c 56.86,18.21 122.46,27.33 196.81,27.33 49.55,0 91.46,-16.4 125.73,-49.19 34.25,-32.08 51.39,-72.53 51.39,-121.36 v -356.43" />
        <path
           inkscape:connector-curvature="0"
           id="path3731"
           style="fill:#131212;fill-opacity:1;fill-rule:nonzero;stroke:none"
           d="m 2811.04,1787.03 c -42.28,0 -84.18,-5.84 -125.73,-17.49 v -463.57 h -121.35 v 531.9 c 83.09,33.89 167.63,50.84 253.65,50.84 17.49,0 38.26,-1.1 62.32,-3.28 v -101.68 c -43.74,2.19 -66.7,3.28 -68.89,3.28" />
        <path
           inkscape:connector-curvature="0"
           id="path3733"
           style="fill:#131212;fill-opacity:1;fill-rule:nonzero;stroke:none"
           d="m 3280.08,1554.15 h -42.64 c -74.35,0 -129.39,-11.6 -165.1,-34.76 -25.52,-16.67 -38.26,-36.95 -38.26,-60.85 0,-21.73 9.1,-39.48 27.33,-53.24 20.4,-15.93 49.56,-23.89 87.47,-23.89 45.91,0 89.66,9.05 131.2,27.16 z M 3144.5,1279.73 c -67.07,0 -123.19,16.04 -168.37,48.1 -45.2,32.81 -67.79,76.17 -67.79,130.11 0,59.76 26.6,107.15 79.82,142.13 56.85,37.18 137.76,55.76 242.72,55.76 h 49.2 v 30.36 c 0,67.22 -34.99,100.84 -104.96,100.84 -69.26,0 -136.66,-12.76 -202.27,-38.27 v 106.78 c 70.69,22.11 145.41,33.17 224.13,33.17 56.13,0 104.23,-17.87 144.32,-53.57 40.08,-34.99 60.14,-79.09 60.14,-132.3 v -348.77 c -80.19,-49.56 -165.83,-74.34 -256.94,-74.34" />
        <path
           inkscape:connector-curvature="0"
           id="path3735"
           style="fill:#131212;fill-opacity:1;fill-rule:nonzero;stroke:none"
           d="m 3817.99,1307.06 h -110.43 l -233.97,554.31 h 130.1 l 166.19,-383.75 153.07,383.75 h 114.79 l -219.75,-554.31" />
        <path
           inkscape:connector-curvature="0"
           id="path3737"
           style="fill:#131212;fill-opacity:1;fill-rule:nonzero;stroke:none"
           d="m 4455.39,1554.15 h -42.65 c -74.34,0 -129.38,-11.6 -165.08,-34.76 -25.53,-16.67 -38.28,-36.95 -38.28,-60.85 0,-21.73 9.12,-39.48 27.34,-53.24 20.4,-15.93 49.56,-23.89 87.47,-23.89 45.92,0 89.65,9.05 131.2,27.16 z m -135.58,-274.42 c -67.07,0 -123.18,16.04 -168.36,48.1 -45.21,32.81 -67.8,76.17 -67.8,130.11 0,59.76 26.6,107.15 79.82,142.13 56.85,37.18 137.76,55.76 242.72,55.76 h 49.2 v 30.36 c 0,67.22 -34.99,100.84 -104.96,100.84 -69.26,0 -136.67,-12.76 -202.27,-38.27 v 106.78 c 70.7,22.11 145.41,33.17 224.13,33.17 56.12,0 104.23,-17.87 144.32,-53.57 40.08,-34.99 60.14,-79.09 60.14,-132.3 v -348.77 c -80.19,-49.56 -165.83,-74.34 -256.94,-74.34" />
        <path
           inkscape:connector-curvature="0"
           id="path3739"
           style="fill:#141212;fill-opacity:1;fill-rule:nonzero;stroke:none"
           d="m 960,2156.16 h 80 c 0,0 -7.5,-758.75 0,-780 7.5,-21.25 42.08,-39.58 73.33,-40.83 31.25,-1.25 85,21.25 85,21.25 l 1.67,-60 c 0,0 -55,-29.17 -95.83,-28.33 -40.84,0.83 -89.17,27.5 -111.67,52.08 -22.5,24.58 -29.168,53.75 -32.918,66.25 -3.75,12.5 0.418,769.58 0.418,769.58" />
        <path
           inkscape:connector-curvature="0"
           id="path3741"
           style="fill:#141212;fill-opacity:1;fill-rule:nonzero;stroke:none"
           d="m 4758.33,2383.66 c 0,-42.8 -35.44,-77.5 -79.16,-77.5 -43.73,0 -79.17,34.7 -79.17,77.5 0,42.81 35.44,77.5 79.17,77.5 43.72,0 79.16,-34.69 79.16,-77.5" />
        <path
           inkscape:connector-curvature="0"
           id="path3743"
           style="fill:#141212;fill-opacity:1;fill-rule:nonzero;stroke:none"
           d="m 4938.33,2553.66 c 0,-42.8 -35.44,-77.5 -79.16,-77.5 -43.73,0 -79.17,34.7 -79.17,77.5 0,42.81 35.44,77.5 79.17,77.5 43.72,0 79.16,-34.69 79.16,-77.5" />
        <path
           inkscape:connector-curvature="0"
           id="path3745"
           style="fill:#141212;fill-opacity:1;fill-rule:nonzero;stroke:none"
           d="m 5178.33,2553.66 c 0,-42.8 -35.44,-77.5 -79.16,-77.5 -43.73,0 -79.17,34.7 -79.17,77.5 0,42.81 35.44,77.5 79.17,77.5 43.72,0 79.16,-34.69 79.16,-77.5" />
        <path
           inkscape:connector-curvature="0"
           id="path3747"
           style="fill:#141212;fill-opacity:1;fill-rule:nonzero;stroke:none"
           d="m 5348.33,2383.66 c 0,-42.8 -35.44,-77.5 -79.16,-77.5 -43.73,0 -79.17,34.7 -79.17,77.5 0,42.81 35.44,77.5 79.17,77.5 43.72,0 79.16,-34.69 79.16,-77.5" />
        <path
           inkscape:connector-curvature="0"
           id="path3749"
           style="fill:#141212;fill-opacity:1;fill-rule:nonzero;stroke:none"
           d="m 5348.33,2143.66 c 0,-42.8 -35.44,-77.5 -79.16,-77.5 -43.73,0 -79.17,34.7 -79.17,77.5 0,42.81 35.44,77.5 79.17,77.5 43.72,0 79.16,-34.69 79.16,-77.5" />
        <path
           inkscape:connector-curvature="0"
           id="path3751"
           style="fill:#141212;fill-opacity:1;fill-rule:nonzero;stroke:none"
           d="m 5178.33,1973.66 c 0,-42.8 -35.44,-77.5 -79.16,-77.5 -43.73,0 -79.17,34.7 -79.17,77.5 0,42.81 35.44,77.5 79.17,77.5 43.72,0 79.16,-34.69 79.16,-77.5" />
        <path
           inkscape:connector-curvature="0"
           id="path3753"
           style="fill:#141212;fill-opacity:1;fill-rule:nonzero;stroke:none"
           d="m 4928.33,1973.66 c 0,-42.8 -35.44,-77.5 -79.16,-77.5 -43.73,0 -79.17,34.7 -79.17,77.5 0,42.81 35.44,77.5 79.17,77.5 43.72,0 79.16,-34.69 79.16,-77.5" />
        <path
           inkscape:connector-curvature="0"
           id="path3755"
           style="fill:#141212;fill-opacity:1;fill-rule:nonzero;stroke:none"
           d="m 4758.33,2143.66 c 0,-42.8 -35.44,-77.5 -79.16,-77.5 -43.73,0 -79.17,34.7 -79.17,77.5 0,42.81 35.44,77.5 79.17,77.5 43.72,0 79.16,-34.69 79.16,-77.5" />
        <path
           inkscape:connector-curvature="0"
           id="path3757"
           style="fill:#141212;fill-opacity:1;fill-rule:nonzero;stroke:none"
           d="m 5135,2262.9 c 0,-87.41 -72.38,-158.26 -161.67,-158.26 -89.28,0 -161.66,70.85 -161.66,158.26 0,87.41 72.38,158.26 161.66,158.26 89.29,0 161.67,-70.85 161.67,-158.26" />
        <path
           inkscape:connector-curvature="0"
           id="path3759"
           style="fill:#141212;fill-opacity:1;fill-rule:nonzero;stroke:none"
           d="m 5381.67,2601.16 c 0,-34.05 -27.61,-61.66 -61.67,-61.66 -34.06,0 -61.67,27.61 -61.67,61.66 0,34.06 27.61,61.67 61.67,61.67 34.06,0 61.67,-27.61 61.67,-61.67" />
        <path
           inkscape:connector-curvature="0"
           id="path3761"
           style="fill:#141212;fill-opacity:1;fill-rule:nonzero;stroke:none"
           d="m 5521.67,2261.16 c 0,-34.05 -27.61,-61.66 -61.67,-61.66 -34.06,0 -61.67,27.61 -61.67,61.66 0,34.06 27.61,61.67 61.67,61.67 34.06,0 61.67,-27.61 61.67,-61.67" />
        <path
           inkscape:connector-curvature="0"
           id="path3763"
           style="fill:#141212;fill-opacity:1;fill-rule:nonzero;stroke:none"
           d="m 5371.67,1921.16 c 0,-34.05 -27.61,-61.66 -61.67,-61.66 -34.06,0 -61.67,27.61 -61.67,61.66 0,34.06 27.61,61.67 61.67,61.67 34.06,0 61.67,-27.61 61.67,-61.67" />
        <path
           inkscape:connector-curvature="0"
           id="path3765"
           style="fill:#141212;fill-opacity:1;fill-rule:nonzero;stroke:none"
           d="m 5031.67,1781.16 c 0,-34.05 -27.61,-61.66 -61.67,-61.66 -34.06,0 -61.67,27.61 -61.67,61.66 0,34.06 27.61,61.67 61.67,61.67 34.06,0 61.67,-27.61 61.67,-61.67" />
        <path
           inkscape:connector-curvature="0"
           id="path3767"
           style="fill:#141212;fill-opacity:1;fill-rule:nonzero;stroke:none"
           d="m 4691.67,1931.16 c 0,-34.05 -27.61,-61.66 -61.67,-61.66 -34.06,0 -61.67,27.61 -61.67,61.66 0,34.06 27.61,61.67 61.67,61.67 34.06,0 61.67,-27.61 61.67,-61.67" />
        <path
           inkscape:connector-curvature="0"
           id="path3769"
           style="fill:#141212;fill-opacity:1;fill-rule:nonzero;stroke:none"
           d="m 4551.67,2271.16 c 0,-34.05 -27.61,-61.66 -61.67,-61.66 -34.06,0 -61.67,27.61 -61.67,61.66 0,34.06 27.61,61.67 61.67,61.67 34.06,0 61.67,-27.61 61.67,-61.67" />
        <path
           inkscape:connector-curvature="0"
           id="path3771"
           style="fill:#141212;fill-opacity:1;fill-rule:nonzero;stroke:none"
           d="m 4701.67,2601.16 c 0,-34.05 -27.61,-61.66 -61.67,-61.66 -34.06,0 -61.67,27.61 -61.67,61.66 0,34.06 27.61,61.67 61.67,61.67 34.06,0 61.67,-27.61 61.67,-61.67" />
        <path
           inkscape:connector-curvature="0"
           id="path3773"
           style="fill:#141212;fill-opacity:1;fill-rule:nonzero;stroke:none"
           d="m 5041.67,2741.16 c 0,-34.05 -27.61,-61.66 -61.67,-61.66 -34.06,0 -61.67,27.61 -61.67,61.66 0,34.06 27.61,61.67 61.67,61.67 34.06,0 61.67,-27.61 61.67,-61.67" />
        <path
           inkscape:connector-curvature="0"
           id="path3775"
           style="fill:#141212;fill-opacity:1;fill-rule:nonzero;stroke:none"
           d="m 4785,2807.83 c 0,-24.85 -20.15,-45 -45,-45 -24.85,0 -45,20.15 -45,45 0,24.85 20.15,45 45,45 24.85,0 45,-20.15 45,-45" />
        <path
           inkscape:connector-curvature="0"
           id="path3777"
           style="fill:#141212;fill-opacity:1;fill-rule:nonzero;stroke:none"
           d="m 5245,2807.83 c 0,-24.85 -20.15,-45 -45,-45 -24.85,0 -45,20.15 -45,45 0,24.85 20.15,45 45,45 24.85,0 45,-20.15 45,-45" />
        <path
           inkscape:connector-curvature="0"
           id="path3779"
           style="fill:#141212;fill-opacity:1;fill-rule:nonzero;stroke:none"
           d="m 5565,2497.83 c 0,-24.85 -20.15,-45 -45,-45 -24.85,0 -45,20.15 -45,45 0,24.85 20.15,45 45,45 24.85,0 45,-20.15 45,-45" />
        <path
           inkscape:connector-curvature="0"
           id="path3781"
           style="fill:#141212;fill-opacity:1;fill-rule:nonzero;stroke:none"
           d="m 5575,2047.83 c 0,-24.85 -20.15,-45 -45,-45 -24.85,0 -45,20.15 -45,45 0,24.85 20.15,45 45,45 24.85,0 45,-20.15 45,-45" />
        <path
           inkscape:connector-curvature="0"
           id="path3783"
           style="fill:#141212;fill-opacity:1;fill-rule:nonzero;stroke:none"
           d="m 5255,1717.83 c 0,-24.85 -20.15,-45 -45,-45 -24.85,0 -45,20.15 -45,45 0,24.85 20.15,45 45,45 24.85,0 45,-20.15 45,-45" />
        <path
           inkscape:connector-curvature="0"
           id="path3785"
           style="fill:#141212;fill-opacity:1;fill-rule:nonzero;stroke:none"
           d="m 4795,1717.83 c 0,-24.85 -20.15,-45 -45,-45 -24.85,0 -45,20.15 -45,45 0,24.85 20.15,45 45,45 24.85,0 45,-20.15 45,-45" />
        <path
           inkscape:connector-curvature="0"
           id="path3787"
           style="fill:#141212;fill-opacity:1;fill-rule:nonzero;stroke:none"
           d="m 4475,2027.83 c 0,-24.85 -20.15,-45 -45,-45 -24.85,0 -45,20.15 -45,45 0,24.85 20.15,45 45,45 24.85,0 45,-20.15 45,-45" />
        <path
           inkscape:connector-curvature="0"
           id="path3789"
           style="fill:#141212;fill-opacity:1;fill-rule:nonzero;stroke:none"
           d="m 4465,2487.83 c 0,-24.85 -20.15,-45 -45,-45 -24.85,0 -45,20.15 -45,45 0,24.85 20.15,45 45,45 24.85,0 45,-20.15 45,-45" />
      </g>
    </g>
  </g>
</svg>
